<svg width="549" height="549" viewBox="0 0 549 549" fill="none" xmlns="http://www.w3.org/2000/svg">
<g filter="url(#filter0_d_315_265)">
<path d="M208.877 210.156C207.889 210.354 206.901 210.749 205.716 211.539C204.728 212.33 203.542 213.911 203.542 216.677C203.542 219.246 204.728 220.827 205.716 221.815C206.704 222.605 207.692 223 208.877 223C208.087 222.407 207.494 221.617 206.901 220.827C206.308 219.839 205.716 218.653 205.716 216.677C205.716 214.701 206.506 213.515 206.901 212.527C207.494 211.539 208.087 210.749 208.877 210.156Z" fill="#00B8AC"/>
<path d="M260.45 297.891C263.809 294.532 264.402 288.999 262.624 282.676C261.833 280.107 260.252 277.538 258.079 275.365C260.055 273.389 263.216 268.844 263.612 260.742C264.007 251.85 261.636 247.305 260.252 245.527C261.24 241.773 264.797 226.557 259.067 216.875C263.809 206.995 263.414 197.708 261.438 192.175C260.055 188.618 257.881 186.049 255.115 184.864C248.199 182.097 241.085 182.888 234.564 187.235C231.008 189.606 228.439 192.373 227.451 193.756C218.954 193.163 215.397 197.115 214.212 199.684C212.236 198.893 210.457 198.696 210.26 198.696C202.158 198.696 196.823 203.636 194.847 212.33C193.068 212.725 189.709 213.911 187.338 216.875C185.362 219.444 184.769 222.605 185.164 226.557C182.991 228.138 178.248 232.485 178.248 239.204C178.248 242.563 178.446 244.934 179.236 246.91C176.075 249.874 171.925 256.395 175.284 264.299C174.296 268.053 169.752 287.418 181.805 300.065C181.608 304.017 181.015 321.208 193.859 328.914C194.847 331.483 199.589 341.758 206.505 344.525C208.481 345.315 210.457 345.513 212.433 344.92C214.804 348.081 222.511 356.381 234.762 352.231C236.54 354.405 240.888 358.752 248.001 358.752C249.187 358.752 250.175 358.554 251.558 358.357C263.612 356.183 263.612 344.722 263.612 339.189C263.612 330.89 262.228 324.567 259.66 320.813C261.24 319.232 263.612 315.477 263.612 307.969C263.612 304.214 262.624 300.46 260.45 297.891ZM184.374 296.903C183.979 297.298 183.584 296.903 183.386 296.903C175.087 287.221 176.865 273.191 178.051 267.263C178.644 266.077 179.236 265.089 180.027 264.101C181.805 262.125 184.176 261.137 186.35 260.94C188.524 260.742 190.697 261.335 192.278 262.521C193.859 263.509 195.044 265.089 196.032 266.473C198.008 269.437 198.996 272.401 199.787 275.365C200.577 278.329 201.17 281.095 201.565 284.257C201.565 281.095 201.17 278.329 200.577 275.167C199.984 272.203 198.996 269.041 197.218 265.682C196.23 264.101 195.044 262.323 193.068 261.137C191.29 259.754 188.721 258.964 186.152 259.161C183.386 259.161 180.62 260.545 178.446 262.718C178.446 262.718 178.446 262.916 178.248 262.916C174.692 254.617 181.805 248.689 182.2 248.491L183.188 247.701C183.188 247.701 185.362 246.12 187.931 246.713C188.721 246.91 189.314 247.503 190.104 247.898C192.476 249.677 194.056 252.048 195.835 254.221C196.823 255.209 197.811 256.197 199.194 256.79C200.577 257.383 201.96 257.383 203.146 257.185C204.332 256.988 205.517 256.593 206.505 256.197C207.493 255.605 208.481 255.209 209.272 254.814C211.05 254.024 212.828 254.024 214.409 254.419C215.99 255.012 217.373 255.802 218.559 256.988C220.93 259.359 222.708 261.928 224.092 265.089C222.906 261.928 221.325 258.964 218.954 256.395C217.768 255.209 216.385 254.024 214.607 253.233C213.026 252.641 211.248 252.641 209.469 253.036C207.296 248.491 205.912 244.341 205.912 240.785C205.912 239.006 206.308 237.425 207.098 236.042C207.888 234.857 209.074 233.869 210.26 233.276C211.445 232.683 212.828 232.683 214.014 232.881C215.2 233.078 216.385 233.473 217.373 234.066C219.349 235.252 221.325 236.635 222.708 238.611C221.523 236.437 219.744 234.659 217.768 233.276C217.176 232.881 216.583 232.683 215.99 232.288C216.385 229.324 217.176 226.755 218.954 223.593C219.942 222.013 221.128 220.432 223.104 219.246C225.08 218.061 227.846 217.27 231.008 217.665C234.367 217.863 236.343 219.839 237.726 221.617C239.109 223.593 240.097 225.569 241.085 227.15C242.073 228.731 243.259 230.114 244.642 231.102C246.025 232.09 247.804 232.09 249.384 232.09C247.804 231.893 246.42 231.497 245.235 230.312C244.049 229.324 243.259 227.941 242.468 226.36C241.678 224.779 240.888 222.803 239.307 220.432C238.912 219.839 238.516 219.246 237.924 218.851C237.726 218.653 237.331 218.258 237.133 218.061C236.936 217.863 236.54 217.665 236.145 217.27C235.552 216.677 234.762 216.48 233.774 216.085C232.984 215.887 231.996 215.689 231.008 215.492C227.253 215.097 224.092 216.085 221.72 217.665C219.349 219.246 218.164 221.222 217.373 223.001C215.792 226.36 215.595 229.324 215.595 232.288C215.002 232.09 214.409 231.893 213.816 231.695C212.433 231.3 210.852 231.3 209.469 231.893C207.888 232.485 206.505 233.473 205.517 235.054C204.529 236.635 203.936 238.611 203.739 240.587C203.739 242.761 203.936 244.934 204.727 247.108C205.32 249.084 206.11 251.257 207.296 253.431C206.703 253.629 205.912 254.024 205.32 254.221C204.924 254.419 204.332 254.617 203.936 254.814C203.344 255.012 202.948 255.012 202.356 255.209C201.368 255.209 200.182 255.209 199.392 254.814C198.404 254.419 197.613 253.629 196.823 252.641C195.242 250.665 193.661 248.096 190.895 245.922C189.512 244.934 187.931 243.946 185.757 243.946C184.769 243.946 183.781 244.144 182.793 244.539C182.398 244.737 182.2 244.934 181.805 244.934C181.41 243.353 181.212 241.377 181.212 238.611C181.212 232.09 187.536 228.138 187.536 228.138L187.931 227.941C188.326 227.743 188.919 227.348 189.512 227.348C189.709 227.348 189.907 227.348 190.104 227.348C190.895 227.15 191.685 227.348 192.476 227.348C193.859 227.545 194.847 227.743 196.032 228.138C195.242 227.15 194.254 226.557 192.673 225.965C191.488 225.569 190.104 225.372 188.128 225.767C187.733 222.803 188.326 220.432 189.709 218.653C192.08 215.689 196.032 215.097 196.23 215.097L197.416 214.899L197.613 213.713C198.601 208.181 201.565 201.66 209.864 201.66C209.864 201.66 211.643 201.857 213.619 202.845C216.385 204.426 217.768 205.809 218.559 207.193C219.349 208.576 219.942 209.761 220.14 211.145C220.535 209.761 220.535 208.378 219.942 206.6C219.349 205.217 218.559 203.438 216.583 201.857C216.978 200.869 218.756 196.72 226.463 196.917C226.068 198.103 225.87 199.091 225.87 199.881C225.87 201.067 225.87 202.055 226.265 203.043C226.66 202.055 227.056 201.067 227.451 200.079C227.846 199.289 228.439 198.103 229.032 196.917L229.624 196.127C230.02 195.534 239.702 182.097 253.929 187.63C255.708 188.421 257.288 190.199 258.276 192.965C260.055 197.708 260.45 206.007 256.3 214.899C255.312 213.911 254.324 213.121 253.534 212.33C252.151 211.342 250.965 210.749 249.582 210.157C247.804 209.366 246.223 208.971 244.84 208.773C245.432 207.983 245.828 206.995 246.025 206.402C246.42 205.414 246.816 204.229 247.013 203.043C247.211 201.067 246.618 199.486 245.63 198.301C246.223 199.881 246.025 201.265 245.63 202.845C245.235 204.426 244.247 206.205 242.468 208.576C238.516 208.378 235.552 208.971 232.391 209.761C235.75 209.564 238.714 209.366 242.468 210.157C244.444 210.552 246.42 210.947 248.792 212.133C249.977 212.725 251.163 213.318 252.348 214.306C253.534 215.097 254.72 216.282 255.708 217.468L255.905 217.863C261.24 225.767 258.276 239.797 257.288 244.144C255.905 242.958 254.324 242.365 253.139 242.168C251.36 241.97 250.175 242.365 249.187 243.156C250.57 242.958 251.558 243.156 252.941 243.551C253.139 243.551 253.336 243.749 253.732 243.946C255.312 244.737 256.893 246.515 256.893 246.515L257.486 247.108C257.486 247.108 261.043 250.862 260.45 260.742C260.055 269.437 255.905 273.191 254.917 273.981C253.336 273.191 251.953 272.401 250.57 271.808C248.792 271.215 247.013 270.622 245.432 270.425C244.84 270.425 244.444 270.425 243.852 270.425C243.259 270.227 243.456 269.239 243.456 269.239C243.654 264.694 242.864 261.335 241.876 258.964C240.888 256.593 239.307 254.814 237.528 253.826C237.924 253.431 238.516 253.036 238.912 252.443C240.295 250.862 240.888 249.084 241.085 247.305C241.283 245.527 241.085 244.144 240.888 242.761C240.295 239.994 239.109 237.821 238.121 236.24C236.936 234.461 235.75 233.078 234.367 232.09C232.984 231.102 231.6 230.114 229.822 230.114C231.6 230.312 232.786 231.497 233.774 232.683C234.96 233.869 235.948 235.252 236.738 237.03C237.726 238.809 238.516 240.785 238.912 243.156C239.307 245.527 239.307 248.689 237.133 251.257C236.54 251.85 235.948 252.443 235.355 252.838C234.96 253.036 234.762 253.233 234.367 253.431C233.972 253.629 233.774 253.826 233.379 254.024C232.786 254.221 232.193 254.617 231.403 254.617C230.81 254.814 230.217 254.814 229.624 254.814C227.253 254.814 225.277 253.629 223.894 252.443C222.313 251.257 221.128 250.072 220.14 248.689C219.152 247.503 218.164 246.12 217.176 244.737C217.768 246.317 218.559 247.701 219.349 249.281C220.337 250.665 221.325 252.245 222.906 253.629C224.487 255.012 226.66 256.395 229.624 256.593C230.415 256.79 231.205 256.593 231.996 256.395C232.786 256.395 233.576 256 234.367 255.605C234.762 255.407 235.157 255.209 235.552 255.012C235.948 254.814 236.343 254.617 236.738 254.221C236.936 254.024 237.133 254.024 237.331 253.826C238.714 255.209 239.702 256.988 240.492 259.359C241.283 261.928 241.678 265.485 241.283 270.425C239.702 270.622 238.319 271.017 236.936 271.413C234.564 272.203 232.786 273.389 231.205 274.772C229.624 275.957 228.439 277.341 227.056 278.921C228.636 277.538 230.02 276.353 231.6 275.365C233.181 274.377 234.96 273.389 237.331 272.796C239.504 272.203 242.073 271.808 245.037 272.203C246.618 272.401 248.199 272.796 249.78 273.586C250.768 273.981 251.756 274.574 252.941 275.365L254.522 276.748C256.893 278.724 258.869 281.293 259.462 283.664C260.45 286.825 261.24 292.358 258.079 295.717C257.881 295.915 257.486 296.113 257.288 296.508L256.498 297.101C255.708 297.693 254.917 298.089 254.324 298.286C253.732 298.484 252.941 298.681 252.348 298.879C250.57 299.274 248.989 299.274 247.408 299.274C244.247 299.077 241.48 299.472 239.109 300.262C235.355 301.448 232.588 303.819 231.403 306.783C231.205 306.388 231.205 305.993 231.008 305.4C230.81 304.807 230.612 304.214 230.415 303.621C230.217 303.424 230.217 303.029 230.02 302.831C229.822 302.633 229.624 302.238 229.427 302.041C228.044 299.867 225.87 298.089 223.301 296.705C220.93 295.52 218.361 294.729 215.595 294.137C216.583 292.556 217.373 290.975 217.768 289.394C217.966 288.406 218.164 287.418 218.164 286.43C219.152 288.011 220.337 289.197 221.918 289.987C223.894 291.173 226.068 291.37 227.846 291.173C229.822 290.975 231.205 290.382 232.588 289.987C233.972 289.592 235.355 288.999 236.54 288.604C238.912 287.813 241.085 287.023 243.259 286.825C244.247 286.628 245.235 286.825 246.42 287.023C247.408 287.221 248.396 287.813 249.187 288.406C248.396 287.616 247.408 287.023 246.42 286.628C245.432 286.233 244.247 286.035 243.259 286.035C241.085 286.035 238.714 286.628 236.343 287.221C235.157 287.616 233.774 288.011 232.391 288.406C231.008 288.801 229.427 289.197 227.846 289.394C226.265 289.592 224.487 289.394 222.906 288.406C221.325 287.616 219.942 285.837 219.152 284.059C219.152 284.059 218.559 283.071 218.361 282.281C218.361 282.083 218.361 282.083 218.361 281.885C218.164 279.514 217.571 277.143 216.583 275.167C215.595 273.191 214.212 271.413 212.433 270.029C210.655 268.646 208.679 267.856 206.308 267.856C208.481 268.053 210.457 269.041 212.038 270.425C213.619 271.808 214.804 273.586 215.595 275.562C216.385 277.538 216.978 279.712 216.978 282.083C217.176 284.454 216.978 286.825 216.385 289.197C215.595 291.568 214.409 293.939 212.236 295.915C211.643 296.31 211.05 296.903 210.457 297.298C210.062 297.496 209.864 297.693 209.469 297.891C209.074 298.089 208.679 298.286 208.481 298.286C207.691 298.681 207.098 298.879 206.308 299.077C205.517 299.274 204.727 299.472 203.936 299.472C202.356 299.669 200.577 299.472 199.194 298.681C197.613 297.891 196.428 296.508 195.242 294.927C195.044 294.729 194.847 294.532 194.649 294.137C194.452 293.939 194.254 293.544 193.859 293.544C193.661 293.346 193.266 293.149 193.068 293.149C193.661 287.813 192.673 283.861 191.488 281.095C190.104 278.131 188.524 276.155 186.35 274.574C188.128 276.748 189.116 278.724 190.104 281.688C190.895 284.454 191.685 288.011 191.092 292.951C190.104 293.149 189.116 293.544 188.326 293.939C186.745 294.532 185.56 295.52 184.374 296.903C184.374 296.705 184.374 296.705 184.374 296.903ZM212.236 338.004C212.236 338.201 212.038 338.201 212.038 338.201C211.643 339.189 211.445 340.177 211.643 341.561C210.26 341.956 209.074 341.956 207.691 341.363C202.948 339.387 199.194 332.669 197.613 329.112C197.613 325.555 197.02 322.591 196.625 320.22C196.23 317.849 195.637 315.675 195.044 313.897C194.056 310.34 192.871 307.771 191.685 304.807C192.278 307.771 192.871 310.537 193.661 314.094C194.056 315.873 194.452 317.849 194.847 320.417C195.044 321.801 195.242 323.579 195.44 325.16C195.44 325.753 195.044 325.555 195.044 325.357C185.164 318.837 184.967 305.005 185.164 300.46C185.164 298.879 185.757 298.089 186.152 297.693C187.14 296.705 188.326 295.717 189.314 295.125C190.104 294.532 191.092 294.334 191.883 294.334C192.673 294.334 193.068 294.927 193.661 295.52C194.847 297.298 196.428 298.879 198.404 299.867C199.194 300.262 199.984 300.46 200.775 300.657C200.38 305.202 201.565 309.154 203.739 311.921C204.727 313.304 205.912 314.292 207.098 315.082C207.098 315.082 207.493 315.28 207.296 316.268C206.505 321.208 207.098 325.357 208.481 328.914C209.272 330.89 210.457 332.471 211.643 333.657C212.236 334.249 212.828 334.842 213.619 335.237L213.816 335.435C213.816 335.633 213.619 335.83 213.421 336.028C212.828 336.818 212.433 337.609 212.236 338.004ZM256.696 319.232L254.917 320.022C254.522 320.22 254.127 320.22 253.732 320.417C251.36 320.615 249.384 320.615 247.606 320.417C246.42 320.022 245.432 319.627 244.642 318.837C244.444 318.441 244.049 318.046 243.852 317.651C243.852 317.453 243.654 317.256 243.654 317.058C243.654 316.861 243.654 316.663 243.456 316.268C243.259 314.292 243.456 312.513 244.444 311.328C245.037 310.735 245.828 310.537 246.618 310.537C247.013 310.537 247.408 310.537 247.804 310.735C248.199 310.933 248.594 310.933 248.989 311.328C248.792 310.933 248.396 310.735 248.001 310.537C247.606 310.34 247.211 310.142 246.618 310.142C245.63 309.945 244.642 310.142 243.852 310.933C243.061 311.525 242.468 312.513 242.271 313.501C242.073 314.489 241.876 315.477 241.876 316.663C241.876 316.861 241.876 317.256 241.876 317.453C241.876 317.849 242.073 318.046 242.073 318.441C242.271 319.034 242.666 319.627 243.061 320.22C244.049 321.405 245.235 322.196 246.816 322.591C249.384 323.184 252.546 323.184 255.905 322.393C257.881 324.567 260.055 329.309 260.055 339.782C260.055 346.698 259.264 354.207 250.57 355.788C243.061 357.171 238.714 353.021 237.133 351.045C238.912 350.255 240.097 349.069 241.283 348.081C241.678 347.686 242.073 347.291 242.468 346.896C243.852 348.081 245.432 348.674 246.816 348.674C248.396 348.674 249.78 348.081 250.57 347.686C251.558 347.093 252.348 346.501 252.744 345.513C253.139 344.525 252.941 343.734 252.744 342.746C252.744 343.734 252.546 344.525 251.953 345.117C251.558 345.71 250.768 346.105 249.78 346.501C248.792 346.896 247.804 347.093 246.618 347.093C246.025 347.093 245.432 346.896 244.84 346.698C244.444 346.501 244.049 346.303 243.852 345.908C243.654 345.71 243.852 345.117 243.852 345.117C244.049 344.92 244.247 344.525 244.247 344.327C245.63 341.561 245.63 339.189 245.235 337.016C245.037 339.387 244.444 341.561 243.061 343.734C242.271 344.92 241.48 345.71 240.097 346.896C238.714 348.081 237.331 348.674 235.157 349.465L234.367 349.86C221.325 354.997 214.409 343.734 214.014 343.141L213.421 342.153C213.224 341.956 213.224 341.363 213.026 341.165C212.828 339.782 213.224 338.597 213.619 337.806C213.619 337.806 213.619 337.806 213.619 337.609C213.816 337.213 214.014 337.213 214.014 337.213C214.212 337.411 214.409 337.411 214.804 337.609C217.571 338.992 220.14 339.585 222.511 339.585C225.08 339.585 227.451 338.597 229.032 336.621C227.253 338.399 224.882 338.992 222.511 338.794C220.14 338.597 217.768 337.806 215.397 336.423C214.804 336.028 214.212 335.633 213.619 335.237C213.026 334.842 212.433 334.249 211.84 333.657C210.852 332.471 209.864 331.088 209.272 329.309C208.086 326.345 207.691 322.393 208.284 318.046C208.284 318.046 208.481 317.453 208.876 317.453C209.272 317.651 209.667 317.849 210.26 317.849C213.026 318.441 215.397 317.651 217.176 316.663C218.954 315.477 220.535 314.094 221.72 312.316C220.337 313.897 218.559 315.082 216.78 315.873C215.002 316.663 212.828 317.256 210.457 316.465C209.864 316.268 209.272 316.07 208.876 315.873C208.284 315.477 207.691 315.28 207.098 314.885C205.912 314.094 204.924 313.106 203.936 311.723C202.356 309.549 201.368 306.388 201.565 302.831C201.565 302.633 201.763 301.843 202.356 301.843C202.553 301.843 202.948 301.843 203.146 301.843C204.134 301.645 204.924 301.448 205.912 301.25C206.703 301.053 207.691 300.657 208.284 300.262C208.679 300.065 209.074 299.867 209.469 299.669C209.864 299.472 210.26 299.274 210.655 299.077C211.445 298.681 212.038 298.089 212.631 297.496C212.828 297.298 213.026 296.903 213.224 296.705C213.224 296.705 213.421 296.31 214.014 296.508C219.942 297.298 224.882 300.065 227.253 303.621C227.451 303.819 227.648 304.017 227.648 304.214L228.044 305.005C228.241 305.4 228.636 305.993 228.636 306.388C228.834 306.981 229.032 307.376 229.032 307.771C229.032 308.364 229.229 308.759 229.229 309.154C229.427 311.13 229.427 313.106 229.427 314.885C229.427 315.873 229.427 316.663 229.229 317.651H229.032C229.032 317.849 229.229 318.046 229.229 318.244C228.834 320.417 228.044 322.196 226.66 323.381C224.487 325.16 221.325 325.753 218.559 326.148C221.523 325.95 224.487 325.753 227.253 323.974C228.636 322.986 229.427 321.603 230.02 320.22C231.008 322.591 232.391 324.567 234.169 325.95C236.343 327.729 238.516 328.717 240.492 329.112C242.468 329.705 244.247 329.705 245.828 329.507C247.408 329.507 248.989 329.112 250.57 328.717C248.989 328.914 247.408 328.914 245.828 328.717C244.247 328.519 242.666 328.321 240.888 327.729C239.109 327.136 237.133 326.148 235.355 324.567C233.576 322.986 231.996 320.417 231.205 317.256H231.008C231.205 316.465 231.205 315.675 231.205 314.885C231.403 313.106 231.403 311.13 231.205 308.957C231.205 308.364 231.008 307.771 231.008 307.376C231.6 306.19 232.588 305.202 233.576 304.412C234.96 303.226 236.936 302.436 239.109 301.843C241.283 301.25 243.852 301.25 246.816 301.448C248.396 301.448 250.175 301.448 252.151 301.053C253.534 300.855 255.115 300.262 256.696 299.472C257.684 300.657 259.857 303.424 259.857 308.561C260.45 317.256 256.696 319.232 256.696 319.232Z" fill="#00B8AC"/>
<path d="M316.372 210.156C317.36 210.354 318.348 210.749 319.533 211.539C320.521 212.33 321.707 213.911 321.707 216.677C321.707 219.246 320.521 220.827 319.533 221.815C318.545 222.605 317.557 223 316.372 223C317.162 222.407 317.755 221.617 318.348 220.827C318.941 219.839 319.533 218.653 319.533 216.677C319.533 214.701 318.743 213.515 318.348 212.527C317.755 211.539 317.162 210.749 316.372 210.156Z" fill="#00B8AC"/>
<path d="M261.637 308.168C261.637 315.677 264.008 319.432 265.588 321.012C263.02 324.767 261.637 330.892 261.637 339.389C261.637 344.922 261.637 356.383 273.69 358.556C274.876 358.754 276.061 358.952 277.247 358.952C284.558 358.952 288.905 354.604 290.486 352.431C302.737 356.58 310.444 348.084 312.815 345.12C314.791 345.712 316.767 345.515 318.743 344.724C325.461 341.76 330.204 331.485 331.389 329.114C344.233 321.408 343.838 304.216 343.443 300.264C355.496 287.42 350.952 268.056 349.964 264.499C353.125 256.792 349.173 250.272 346.012 247.11C346.604 245.134 347 242.763 347 239.404C347 232.685 342.06 228.338 340.084 226.757C340.479 222.805 339.886 219.644 337.91 217.075C335.539 214.111 332.18 212.925 330.401 212.53C328.425 203.638 323.09 198.896 314.989 198.896C314.791 198.896 313.013 199.093 311.037 199.884C309.653 197.315 306.294 193.56 297.797 193.956C296.809 192.572 294.24 189.806 290.684 187.435C284.163 183.088 277.049 182.297 270.133 185.064C267.565 186.052 265.193 188.621 263.81 192.375C261.834 197.908 261.241 207.195 266.181 217.075C260.451 226.757 264.008 241.972 264.996 245.727C263.81 247.505 261.241 252.05 261.637 260.942C262.032 269.044 265.193 273.588 267.169 275.564C264.996 277.738 263.217 280.307 262.625 282.876C260.846 289.199 261.637 294.732 264.798 298.091C262.625 300.462 261.637 304.216 261.637 308.168ZM340.677 296.708C339.491 295.522 338.305 294.534 336.922 293.744C336.132 293.348 335.144 292.756 334.156 292.756C333.563 287.618 334.156 284.061 335.144 281.492C336.132 278.528 337.12 276.355 338.898 274.379C336.725 275.96 335.144 277.936 333.761 280.9C332.575 283.666 331.587 287.618 332.18 292.953C331.784 293.151 331.587 293.151 331.389 293.348C330.994 293.546 330.796 293.744 330.599 293.941C330.401 294.139 330.204 294.534 330.006 294.732C328.821 296.312 327.635 297.696 326.054 298.486C324.473 299.276 322.893 299.474 321.312 299.276C320.521 299.276 319.731 299.079 318.941 298.881C318.15 298.684 317.557 298.486 316.767 298.091C316.372 297.893 315.976 297.696 315.779 297.696C315.581 297.498 315.186 297.301 314.791 297.103C314.198 296.708 313.605 296.312 313.012 295.72C310.839 293.744 309.653 291.372 308.863 289.001C308.072 286.63 308.073 284.061 308.27 281.888C308.468 279.516 308.863 277.343 309.653 275.367C310.444 273.391 311.629 271.612 313.21 270.229C314.791 268.846 316.767 267.858 318.941 267.66C316.767 267.66 314.593 268.648 312.815 269.834C311.036 271.217 309.653 272.996 308.665 274.972C307.677 276.948 307.084 279.319 306.887 281.69C306.887 281.888 306.887 281.888 306.887 282.085C306.492 282.678 306.097 283.864 306.097 283.864C305.306 285.84 303.725 287.421 302.342 288.211C300.761 289.001 298.983 289.396 297.402 289.199C295.821 289.001 294.241 288.606 292.857 288.211C291.474 287.816 290.091 287.42 288.905 287.025C286.337 286.432 284.163 285.84 281.989 285.84C280.804 285.84 279.816 286.037 278.828 286.432C277.84 286.828 276.852 287.421 276.061 288.211C276.852 287.618 277.84 287.025 278.828 286.828C279.816 286.63 280.804 286.63 281.989 286.63C284.163 286.828 286.139 287.618 288.708 288.408C289.893 288.804 291.276 289.199 292.66 289.792C294.043 290.187 295.624 290.78 297.402 290.977C299.181 291.175 301.354 290.977 303.33 289.792C304.713 289.001 306.097 287.816 307.085 286.235C307.085 287.223 307.282 288.211 307.48 289.199C307.875 290.78 308.665 292.36 309.653 293.941C306.689 294.336 304.12 295.324 301.947 296.51C299.378 297.893 297.205 299.672 295.821 301.845C295.624 302.043 295.426 302.438 295.228 302.636C295.031 302.833 295.031 303.228 294.833 303.426C294.636 304.019 294.24 304.612 294.24 305.204C294.043 305.6 294.043 305.995 293.845 306.588C292.462 303.624 289.893 301.252 286.139 300.067C283.768 299.276 281.001 299.079 277.84 299.079C276.259 299.079 274.678 299.079 272.9 298.684C272.307 298.486 271.516 298.288 270.924 298.091C270.528 297.893 269.541 297.498 268.75 296.905L267.96 296.312C267.564 296.115 267.367 295.72 267.169 295.522C263.81 292.163 264.798 286.432 265.786 283.468C266.577 280.9 268.355 278.331 270.726 276.552L272.307 275.169C273.295 274.379 274.481 273.786 275.469 273.391C277.049 272.798 278.63 272.403 280.211 272.008C283.175 271.612 285.744 272.008 287.917 272.6C290.091 273.193 291.869 274.181 293.648 275.169C295.228 276.157 296.809 277.343 298.193 278.726C296.809 277.145 295.624 275.762 294.043 274.576C292.462 273.391 290.684 272.205 288.313 271.217C287.127 270.822 285.546 270.427 283.965 270.229C283.57 265.289 283.965 261.732 284.756 259.164C285.546 256.792 286.337 255.014 287.917 253.631C288.115 253.828 288.313 254.026 288.51 254.026C288.905 254.224 289.3 254.421 289.696 254.816C290.091 255.014 290.486 255.212 290.881 255.409C291.672 255.607 292.462 256.2 293.253 256.2C294.043 256.397 294.833 256.397 295.624 256.397C298.588 256.2 300.761 254.816 302.342 253.433C303.923 252.05 304.911 250.667 305.899 249.086C306.689 247.703 307.48 246.122 308.072 244.541C307.282 245.924 306.294 247.308 305.109 248.493C304.121 249.679 302.935 251.062 301.354 252.248C299.773 253.433 297.995 254.421 295.624 254.619C295.031 254.619 294.438 254.619 293.845 254.421C293.253 254.421 292.66 254.026 291.869 253.828C291.474 253.631 291.277 253.433 290.881 253.236C290.486 253.038 290.289 252.84 289.893 252.643C289.103 252.248 288.708 251.655 288.115 251.062C285.941 248.493 285.941 245.332 286.336 242.96C286.732 240.392 287.72 238.416 288.51 236.835C289.498 235.056 290.486 233.673 291.474 232.488C292.66 231.302 293.845 230.116 295.426 229.919C293.648 229.919 292.265 230.709 290.881 231.895C289.498 232.883 288.312 234.266 287.127 236.044C285.941 237.823 284.953 239.799 284.361 242.565C284.163 243.948 283.965 245.529 284.163 247.11C284.36 248.888 285.151 250.667 286.336 252.248C286.732 252.643 287.127 253.236 287.72 253.631C285.941 254.816 284.558 256.397 283.373 258.768C282.385 261.337 281.594 264.499 281.792 269.044C281.792 269.044 281.989 269.834 281.397 270.229C280.804 270.229 280.408 270.229 279.816 270.229C278.235 270.427 276.457 270.822 274.678 271.612C273.295 272.205 271.714 272.798 270.331 273.786C269.343 272.996 265.193 269.241 264.798 260.547C264.403 250.667 267.762 246.912 267.762 246.912L268.355 246.32C268.355 246.32 269.936 244.541 271.516 243.751C271.714 243.553 272.109 243.553 272.307 243.356C273.69 242.96 274.678 242.763 276.061 242.96C274.876 242.368 273.69 241.775 272.109 241.972C270.924 242.17 269.343 242.565 267.96 243.948C266.972 239.601 264.008 225.572 269.343 217.668L269.54 217.272C270.528 216.087 271.714 214.901 272.9 214.111C274.085 213.123 275.271 212.53 276.456 211.937C278.828 210.949 280.804 210.356 282.78 209.961C286.534 209.368 289.498 209.368 292.857 209.566C289.696 208.776 286.732 208.183 282.78 208.38C281.001 206.207 280.013 204.231 279.618 202.65C279.223 201.069 279.025 199.686 279.618 198.105C278.63 199.291 278.037 200.872 278.235 202.848C278.432 204.033 278.63 205.219 279.223 206.207C279.42 206.8 280.013 207.788 280.409 208.578C278.828 208.776 277.247 209.171 275.666 209.961C274.481 210.554 273.097 211.147 271.714 212.135C270.726 212.925 269.738 213.716 268.948 214.704C264.798 205.812 264.996 197.71 266.972 192.77C267.96 190.004 269.54 188.225 271.319 187.435C285.546 181.705 295.228 195.339 295.624 195.932L296.217 196.722C297.007 197.71 297.6 198.896 297.797 199.884C298.193 200.872 298.588 201.86 298.983 202.848C299.18 201.86 299.378 200.872 299.378 199.686C299.378 198.896 299.181 197.908 298.785 196.722C306.492 196.524 308.27 200.674 308.665 201.662C306.689 203.44 305.701 205.021 305.306 206.404C304.713 208.183 304.713 209.566 305.109 210.949C305.306 209.566 305.899 208.38 306.689 206.997C307.48 205.614 308.863 204.428 311.629 202.65C313.605 201.662 315.384 201.464 315.384 201.464C323.683 201.464 326.647 207.985 327.635 213.518L327.833 214.704L329.018 214.901C329.018 214.901 333.168 215.296 335.539 218.458C336.922 220.236 337.317 222.608 337.12 225.572C335.144 225.176 333.76 225.374 332.575 225.769C330.994 226.362 330.204 226.955 329.216 227.943C330.401 227.548 331.389 227.35 332.773 227.152C333.365 227.152 334.156 227.152 335.144 227.152C335.341 227.152 335.539 227.152 335.737 227.152C336.329 227.35 336.922 227.548 337.317 227.745L337.713 227.943C337.713 227.943 344.036 231.895 344.036 238.416C344.036 241.182 343.838 243.158 343.443 244.739C343.245 244.541 342.85 244.344 342.455 244.344C341.467 243.948 340.479 243.751 339.491 243.751C337.515 243.751 335.737 244.739 334.353 245.727C331.587 247.703 330.006 250.469 328.425 252.445C327.635 253.433 326.647 254.224 325.857 254.619C324.869 255.014 323.881 255.014 322.893 255.014C322.3 254.816 321.905 254.816 321.312 254.619C320.719 254.421 320.324 254.224 319.929 254.026C319.336 253.828 318.545 253.433 317.953 253.236C319.138 251.062 319.929 248.888 320.521 246.912C321.114 244.541 321.509 242.368 321.509 240.392C321.509 238.218 320.916 236.44 319.731 234.859C318.743 233.278 317.162 232.29 315.779 231.697C314.198 231.104 312.617 231.104 311.432 231.5C310.839 231.697 310.246 231.895 309.653 232.092C309.851 229.128 309.456 226.164 307.875 222.805C307.084 221.027 305.701 219.051 303.528 217.47C301.156 215.889 297.995 215.099 294.24 215.296C293.252 215.296 292.462 215.692 291.474 215.889C290.684 216.284 289.893 216.482 289.103 217.075C288.708 217.272 288.51 217.47 288.115 217.865C287.917 218.063 287.522 218.458 287.324 218.656C286.732 219.248 286.337 219.841 285.941 220.236C284.361 222.41 283.768 224.584 282.78 226.164C281.989 227.745 281.001 229.128 280.013 230.116C278.828 231.104 277.444 231.5 275.864 231.895C277.444 231.895 279.025 231.895 280.606 230.907C281.989 230.116 283.175 228.733 284.163 226.955C285.151 225.374 286.139 223.398 287.522 221.422C288.905 219.446 291.079 217.668 294.24 217.47C297.402 217.272 300.366 217.865 302.145 219.051C304.121 220.236 305.306 222.015 306.294 223.398C307.875 226.362 308.665 229.128 309.258 232.092C308.665 232.29 308.072 232.685 307.48 233.08C305.504 234.464 303.725 236.242 302.54 238.416C303.923 236.44 305.899 235.056 307.875 233.871C308.863 233.278 310.049 232.883 311.234 232.685C312.42 232.488 313.803 232.488 314.989 233.08C316.174 233.673 317.36 234.464 318.15 235.847C318.941 237.032 319.336 238.811 319.336 240.589C319.336 244.146 318.15 248.296 315.779 252.84C314 252.445 312.222 252.445 310.641 253.038C308.863 253.828 307.48 254.816 306.294 256.2C303.923 258.768 302.342 261.732 301.157 264.894C302.54 261.732 304.318 259.164 306.689 256.792C307.875 255.607 309.258 254.816 310.839 254.224C312.42 253.631 314.198 253.828 315.976 254.619C316.767 255.014 317.755 255.409 318.743 256.002C319.731 256.397 320.917 256.792 322.102 256.99C323.288 257.188 324.671 257.188 326.054 256.595C327.437 256.002 328.425 255.014 329.413 254.026C331.192 251.852 332.773 249.481 335.144 247.703C335.737 247.308 336.527 246.912 337.317 246.517C339.886 245.727 342.06 247.505 342.06 247.505L343.048 248.296C343.443 248.493 350.359 254.224 347 262.72C347 262.72 347 262.523 346.802 262.523C344.629 260.349 341.862 258.966 339.096 258.966C336.527 258.768 333.958 259.559 332.18 260.942C330.401 262.325 329.018 263.906 328.03 265.487C326.054 268.846 325.264 272.008 324.671 274.972C324.078 277.936 323.683 280.9 323.683 284.061C324.078 281.097 324.671 278.133 325.461 275.169C326.252 272.205 327.437 269.241 329.216 266.277C330.204 264.894 331.389 263.313 332.97 262.325C334.551 261.14 336.527 260.744 338.898 260.744C341.072 260.744 343.443 261.93 345.221 263.906C346.012 264.696 346.605 265.882 347.197 267.068C348.383 272.996 349.964 286.828 341.862 296.708C341.665 296.905 341.269 297.3 340.677 296.708C340.874 296.708 340.874 296.708 340.677 296.708ZM311.827 336.425C311.629 336.228 311.629 336.03 311.432 335.832L311.629 335.635C312.42 335.24 313.013 334.647 313.605 334.054C314.791 332.868 315.976 331.288 316.767 329.312C318.15 325.755 318.545 321.605 317.953 316.665C317.755 315.677 318.15 315.48 318.15 315.48C319.336 314.689 320.521 313.701 321.509 312.318C323.485 309.552 324.869 305.6 324.473 301.055C325.264 300.857 326.054 300.66 326.845 300.264C328.821 299.276 330.204 297.696 331.587 295.917C332.18 295.127 332.575 294.732 333.365 294.732C334.156 294.732 334.946 294.929 335.934 295.522C337.12 296.115 338.108 297.103 339.096 298.091C339.293 298.486 339.886 299.276 340.084 300.857C340.281 305.204 340.084 319.234 330.204 325.755C330.204 325.755 329.611 325.952 329.809 325.557C330.006 323.779 330.204 322.198 330.401 320.815C330.797 318.444 331.192 316.468 331.587 314.492C332.377 310.935 332.772 308.168 333.563 305.204C332.377 307.971 331.192 310.737 330.204 314.294C329.611 316.072 329.216 318.048 328.623 320.617C328.228 322.988 327.635 325.952 327.635 329.509C325.856 333.066 322.102 339.784 317.557 341.76C316.174 342.353 314.989 342.353 313.605 341.958C313.803 340.575 313.605 339.389 313.21 338.599C313.21 338.599 313.21 338.599 313.21 338.401C312.815 337.611 312.42 336.82 311.827 336.425ZM264.798 308.168C264.798 303.031 266.972 300.264 267.96 299.079C269.54 299.869 270.924 300.264 272.505 300.66C274.481 301.055 276.259 301.055 277.84 301.055C281.001 300.857 283.373 301.055 285.546 301.45C287.72 302.043 289.498 302.833 291.079 304.019C292.067 304.809 293.055 305.797 293.648 306.983C293.648 307.576 293.45 308.168 293.45 308.564C293.253 310.737 293.253 312.516 293.45 314.492C293.45 315.282 293.648 316.073 293.648 316.863H293.45C292.66 320.222 291.079 322.593 289.301 324.174C287.522 325.755 285.546 326.743 283.768 327.336C281.989 327.928 280.408 328.126 278.828 328.324C277.247 328.521 275.666 328.521 274.085 328.324C275.666 328.719 277.247 328.916 278.828 329.114C280.408 329.114 282.187 329.114 284.163 328.719C286.139 328.126 288.313 327.336 290.486 325.557C292.067 324.174 293.45 322.198 294.636 319.827C295.228 321.408 296.217 322.791 297.402 323.581C300.169 325.36 303.133 325.557 306.097 325.755C303.133 325.162 300.168 324.767 297.995 322.988C296.414 321.803 295.624 320.024 295.426 317.851C295.426 317.653 295.624 317.456 295.624 317.258H295.426C295.229 316.468 295.228 315.48 295.228 314.492C295.228 312.713 295.229 310.737 295.426 308.761C295.426 308.366 295.624 307.773 295.624 307.378C295.821 306.983 296.019 306.39 296.019 305.995C296.216 305.402 296.414 305.007 296.612 304.612L297.007 303.821C297.204 303.624 297.402 303.426 297.402 303.228C299.773 299.672 304.713 297.103 310.641 296.115C311.037 296.115 311.432 296.312 311.432 296.312C311.629 296.51 311.827 296.905 312.024 297.103C312.617 297.696 313.21 298.091 314.001 298.684C314.396 298.881 314.791 299.079 315.186 299.276C315.581 299.474 315.976 299.672 316.372 299.869C317.162 300.264 317.952 300.66 318.743 300.857C319.533 301.055 320.521 301.252 321.509 301.45C321.707 301.45 322.102 301.45 322.3 301.45C322.695 301.45 322.893 302.24 323.09 302.438C323.09 305.995 322.102 309.156 320.719 311.33C319.731 312.713 318.743 313.701 317.557 314.492C316.965 314.887 316.372 315.282 315.779 315.48C315.186 315.677 314.593 316.072 314.198 316.072C312.025 316.665 309.851 316.27 307.875 315.48C306.096 314.689 304.318 313.306 302.935 311.923C304.12 313.701 305.701 315.084 307.48 316.27C309.258 317.456 311.827 318.246 314.396 317.456C314.791 317.456 315.186 317.258 315.779 317.06C316.174 316.863 316.372 317.456 316.372 317.653C316.964 322 316.569 325.755 315.384 328.916C314.791 330.695 313.803 332.078 312.815 333.264C312.222 333.856 311.827 334.449 311.037 334.844C310.444 335.24 309.851 335.635 309.258 336.03C306.887 337.413 304.516 338.204 302.145 338.401C299.773 338.599 297.402 338.006 295.624 336.228C297.204 338.204 299.576 339.192 302.145 339.192C304.713 339.389 307.282 338.599 309.851 337.216C310.048 337.018 310.444 337.018 310.641 336.82C310.641 336.82 310.839 336.82 311.037 337.216C311.037 337.216 311.037 337.216 311.037 337.413C311.432 338.006 311.827 339.192 311.629 340.772C311.629 340.97 311.432 341.563 311.234 341.76L310.641 342.748C310.444 343.144 303.33 354.604 290.289 349.467L289.498 349.072C287.325 348.084 285.941 347.491 284.558 346.503C283.175 345.317 282.187 344.527 281.594 343.341C280.013 341.168 279.618 338.994 279.421 336.623C279.025 338.994 279.025 341.365 280.409 343.934C280.606 344.132 280.606 344.527 280.804 344.724C280.804 344.724 281.001 345.12 280.804 345.515C280.408 345.713 280.013 346.108 279.816 346.305C279.223 346.7 278.63 346.7 278.037 346.7C276.852 346.7 275.864 346.503 274.876 346.108C273.888 345.712 273.295 345.515 272.702 344.724C272.307 344.132 271.912 343.341 271.912 342.353C271.714 343.144 271.516 344.132 271.912 345.12C272.307 346.108 273.097 346.898 274.085 347.293C275.073 347.886 276.259 348.281 277.84 348.281C279.223 348.281 280.804 347.886 282.187 346.503C282.582 346.898 282.977 347.293 283.373 347.688C284.558 348.676 285.744 349.664 287.522 350.652C285.941 352.628 281.594 356.778 274.085 355.395C265.391 353.814 264.601 346.305 264.601 339.389C264.601 328.916 266.774 324.174 268.75 322C272.109 322.593 275.073 322.791 277.84 322.198C279.42 321.803 280.606 321.013 281.594 319.827C281.989 319.234 282.385 318.641 282.582 318.048C282.582 317.653 282.78 317.456 282.78 317.06C282.78 316.665 282.78 316.468 282.78 316.27C282.977 315.084 282.582 314.096 282.384 313.108C281.989 312.12 281.594 311.132 280.804 310.54C280.013 309.947 279.025 309.749 278.037 309.749C277.642 309.749 277.049 309.947 276.654 310.144C276.259 310.342 275.864 310.54 275.666 310.935C275.864 310.54 276.456 310.342 276.852 310.342C277.247 310.144 277.642 310.144 278.037 310.144C278.828 310.144 279.618 310.54 280.211 310.935C281.396 312.121 281.594 313.899 281.199 315.875C281.199 316.073 281.199 316.27 281.001 316.665C281.001 316.863 280.804 317.06 280.804 317.258C280.606 317.653 280.409 318.048 280.013 318.444C279.421 319.234 278.433 319.827 277.049 320.024C275.271 320.42 273.295 320.42 270.924 320.024C270.528 320.024 269.936 319.827 269.738 319.629L267.96 318.839C268.552 319.234 264.798 317.258 264.798 308.168Z" fill="#00B8AC"/>
<g filter="url(#filter1_f_315_265)">
<path d="M208.877 210.156C207.889 210.354 206.901 210.749 205.716 211.539C204.728 212.33 203.542 213.911 203.542 216.677C203.542 219.246 204.728 220.827 205.716 221.815C206.704 222.605 207.692 223 208.877 223C208.087 222.407 207.494 221.617 206.901 220.827C206.308 219.839 205.716 218.653 205.716 216.677C205.716 214.701 206.506 213.515 206.901 212.527C207.494 211.539 208.087 210.749 208.877 210.156Z" fill="#00B8AC"/>
<path d="M260.45 297.891C263.809 294.532 264.402 288.999 262.624 282.676C261.833 280.107 260.252 277.538 258.079 275.365C260.055 273.389 263.216 268.844 263.612 260.742C264.007 251.85 261.636 247.305 260.252 245.527C261.24 241.773 264.797 226.557 259.067 216.875C263.809 206.995 263.414 197.708 261.438 192.175C260.055 188.618 257.881 186.049 255.115 184.864C248.199 182.097 241.085 182.888 234.564 187.235C231.008 189.606 228.439 192.373 227.451 193.756C218.954 193.163 215.397 197.115 214.212 199.684C212.236 198.893 210.457 198.696 210.26 198.696C202.158 198.696 196.823 203.636 194.847 212.33C193.068 212.725 189.709 213.911 187.338 216.875C185.362 219.444 184.769 222.605 185.164 226.557C182.991 228.138 178.248 232.485 178.248 239.204C178.248 242.563 178.446 244.934 179.236 246.91C176.075 249.874 171.925 256.395 175.284 264.299C174.296 268.053 169.752 287.418 181.805 300.065C181.608 304.017 181.015 321.208 193.859 328.914C194.847 331.483 199.589 341.758 206.505 344.525C208.481 345.315 210.457 345.513 212.433 344.92C214.804 348.081 222.511 356.381 234.762 352.231C236.54 354.405 240.888 358.752 248.001 358.752C249.187 358.752 250.175 358.554 251.558 358.357C263.612 356.183 263.612 344.722 263.612 339.189C263.612 330.89 262.228 324.567 259.66 320.813C261.24 319.232 263.612 315.477 263.612 307.969C263.612 304.214 262.624 300.46 260.45 297.891ZM184.374 296.903C183.979 297.298 183.584 296.903 183.386 296.903C175.087 287.221 176.865 273.191 178.051 267.263C178.644 266.077 179.236 265.089 180.027 264.101C181.805 262.125 184.176 261.137 186.35 260.94C188.524 260.742 190.697 261.335 192.278 262.521C193.859 263.509 195.044 265.089 196.032 266.473C198.008 269.437 198.996 272.401 199.787 275.365C200.577 278.329 201.17 281.095 201.565 284.257C201.565 281.095 201.17 278.329 200.577 275.167C199.984 272.203 198.996 269.041 197.218 265.682C196.23 264.101 195.044 262.323 193.068 261.137C191.29 259.754 188.721 258.964 186.152 259.161C183.386 259.161 180.62 260.545 178.446 262.718C178.446 262.718 178.446 262.916 178.248 262.916C174.692 254.617 181.805 248.689 182.2 248.491L183.188 247.701C183.188 247.701 185.362 246.12 187.931 246.713C188.721 246.91 189.314 247.503 190.104 247.898C192.476 249.677 194.056 252.048 195.835 254.221C196.823 255.209 197.811 256.197 199.194 256.79C200.577 257.383 201.96 257.383 203.146 257.185C204.332 256.988 205.517 256.593 206.505 256.197C207.493 255.605 208.481 255.209 209.272 254.814C211.05 254.024 212.828 254.024 214.409 254.419C215.99 255.012 217.373 255.802 218.559 256.988C220.93 259.359 222.708 261.928 224.092 265.089C222.906 261.928 221.325 258.964 218.954 256.395C217.768 255.209 216.385 254.024 214.607 253.233C213.026 252.641 211.248 252.641 209.469 253.036C207.296 248.491 205.912 244.341 205.912 240.785C205.912 239.006 206.308 237.425 207.098 236.042C207.888 234.857 209.074 233.869 210.26 233.276C211.445 232.683 212.828 232.683 214.014 232.881C215.2 233.078 216.385 233.473 217.373 234.066C219.349 235.252 221.325 236.635 222.708 238.611C221.523 236.437 219.744 234.659 217.768 233.276C217.176 232.881 216.583 232.683 215.99 232.288C216.385 229.324 217.176 226.755 218.954 223.593C219.942 222.013 221.128 220.432 223.104 219.246C225.08 218.061 227.846 217.27 231.008 217.665C234.367 217.863 236.343 219.839 237.726 221.617C239.109 223.593 240.097 225.569 241.085 227.15C242.073 228.731 243.259 230.114 244.642 231.102C246.025 232.09 247.804 232.09 249.384 232.09C247.804 231.893 246.42 231.497 245.235 230.312C244.049 229.324 243.259 227.941 242.468 226.36C241.678 224.779 240.888 222.803 239.307 220.432C238.912 219.839 238.516 219.246 237.924 218.851C237.726 218.653 237.331 218.258 237.133 218.061C236.936 217.863 236.54 217.665 236.145 217.27C235.552 216.677 234.762 216.48 233.774 216.085C232.984 215.887 231.996 215.689 231.008 215.492C227.253 215.097 224.092 216.085 221.72 217.665C219.349 219.246 218.164 221.222 217.373 223.001C215.792 226.36 215.595 229.324 215.595 232.288C215.002 232.09 214.409 231.893 213.816 231.695C212.433 231.3 210.852 231.3 209.469 231.893C207.888 232.485 206.505 233.473 205.517 235.054C204.529 236.635 203.936 238.611 203.739 240.587C203.739 242.761 203.936 244.934 204.727 247.108C205.32 249.084 206.11 251.257 207.296 253.431C206.703 253.629 205.912 254.024 205.32 254.221C204.924 254.419 204.332 254.617 203.936 254.814C203.344 255.012 202.948 255.012 202.356 255.209C201.368 255.209 200.182 255.209 199.392 254.814C198.404 254.419 197.613 253.629 196.823 252.641C195.242 250.665 193.661 248.096 190.895 245.922C189.512 244.934 187.931 243.946 185.757 243.946C184.769 243.946 183.781 244.144 182.793 244.539C182.398 244.737 182.2 244.934 181.805 244.934C181.41 243.353 181.212 241.377 181.212 238.611C181.212 232.09 187.536 228.138 187.536 228.138L187.931 227.941C188.326 227.743 188.919 227.348 189.512 227.348C189.709 227.348 189.907 227.348 190.104 227.348C190.895 227.15 191.685 227.348 192.476 227.348C193.859 227.545 194.847 227.743 196.032 228.138C195.242 227.15 194.254 226.557 192.673 225.965C191.488 225.569 190.104 225.372 188.128 225.767C187.733 222.803 188.326 220.432 189.709 218.653C192.08 215.689 196.032 215.097 196.23 215.097L197.416 214.899L197.613 213.713C198.601 208.181 201.565 201.66 209.864 201.66C209.864 201.66 211.643 201.857 213.619 202.845C216.385 204.426 217.768 205.809 218.559 207.193C219.349 208.576 219.942 209.761 220.14 211.145C220.535 209.761 220.535 208.378 219.942 206.6C219.349 205.217 218.559 203.438 216.583 201.857C216.978 200.869 218.756 196.72 226.463 196.917C226.068 198.103 225.87 199.091 225.87 199.881C225.87 201.067 225.87 202.055 226.265 203.043C226.66 202.055 227.056 201.067 227.451 200.079C227.846 199.289 228.439 198.103 229.032 196.917L229.624 196.127C230.02 195.534 239.702 182.097 253.929 187.63C255.708 188.421 257.288 190.199 258.276 192.965C260.055 197.708 260.45 206.007 256.3 214.899C255.312 213.911 254.324 213.121 253.534 212.33C252.151 211.342 250.965 210.749 249.582 210.157C247.804 209.366 246.223 208.971 244.84 208.773C245.432 207.983 245.828 206.995 246.025 206.402C246.42 205.414 246.816 204.229 247.013 203.043C247.211 201.067 246.618 199.486 245.63 198.301C246.223 199.881 246.025 201.265 245.63 202.845C245.235 204.426 244.247 206.205 242.468 208.576C238.516 208.378 235.552 208.971 232.391 209.761C235.75 209.564 238.714 209.366 242.468 210.157C244.444 210.552 246.42 210.947 248.792 212.133C249.977 212.725 251.163 213.318 252.348 214.306C253.534 215.097 254.72 216.282 255.708 217.468L255.905 217.863C261.24 225.767 258.276 239.797 257.288 244.144C255.905 242.958 254.324 242.365 253.139 242.168C251.36 241.97 250.175 242.365 249.187 243.156C250.57 242.958 251.558 243.156 252.941 243.551C253.139 243.551 253.336 243.749 253.732 243.946C255.312 244.737 256.893 246.515 256.893 246.515L257.486 247.108C257.486 247.108 261.043 250.862 260.45 260.742C260.055 269.437 255.905 273.191 254.917 273.981C253.336 273.191 251.953 272.401 250.57 271.808C248.792 271.215 247.013 270.622 245.432 270.425C244.84 270.425 244.444 270.425 243.852 270.425C243.259 270.227 243.456 269.239 243.456 269.239C243.654 264.694 242.864 261.335 241.876 258.964C240.888 256.593 239.307 254.814 237.528 253.826C237.924 253.431 238.516 253.036 238.912 252.443C240.295 250.862 240.888 249.084 241.085 247.305C241.283 245.527 241.085 244.144 240.888 242.761C240.295 239.994 239.109 237.821 238.121 236.24C236.936 234.461 235.75 233.078 234.367 232.09C232.984 231.102 231.6 230.114 229.822 230.114C231.6 230.312 232.786 231.497 233.774 232.683C234.96 233.869 235.948 235.252 236.738 237.03C237.726 238.809 238.516 240.785 238.912 243.156C239.307 245.527 239.307 248.689 237.133 251.257C236.54 251.85 235.948 252.443 235.355 252.838C234.96 253.036 234.762 253.233 234.367 253.431C233.972 253.629 233.774 253.826 233.379 254.024C232.786 254.221 232.193 254.617 231.403 254.617C230.81 254.814 230.217 254.814 229.624 254.814C227.253 254.814 225.277 253.629 223.894 252.443C222.313 251.257 221.128 250.072 220.14 248.689C219.152 247.503 218.164 246.12 217.176 244.737C217.768 246.317 218.559 247.701 219.349 249.281C220.337 250.665 221.325 252.245 222.906 253.629C224.487 255.012 226.66 256.395 229.624 256.593C230.415 256.79 231.205 256.593 231.996 256.395C232.786 256.395 233.576 256 234.367 255.605C234.762 255.407 235.157 255.209 235.552 255.012C235.948 254.814 236.343 254.617 236.738 254.221C236.936 254.024 237.133 254.024 237.331 253.826C238.714 255.209 239.702 256.988 240.492 259.359C241.283 261.928 241.678 265.485 241.283 270.425C239.702 270.622 238.319 271.017 236.936 271.413C234.564 272.203 232.786 273.389 231.205 274.772C229.624 275.957 228.439 277.341 227.056 278.921C228.636 277.538 230.02 276.353 231.6 275.365C233.181 274.377 234.96 273.389 237.331 272.796C239.504 272.203 242.073 271.808 245.037 272.203C246.618 272.401 248.199 272.796 249.78 273.586C250.768 273.981 251.756 274.574 252.941 275.365L254.522 276.748C256.893 278.724 258.869 281.293 259.462 283.664C260.45 286.825 261.24 292.358 258.079 295.717C257.881 295.915 257.486 296.113 257.288 296.508L256.498 297.101C255.708 297.693 254.917 298.089 254.324 298.286C253.732 298.484 252.941 298.681 252.348 298.879C250.57 299.274 248.989 299.274 247.408 299.274C244.247 299.077 241.48 299.472 239.109 300.262C235.355 301.448 232.588 303.819 231.403 306.783C231.205 306.388 231.205 305.993 231.008 305.4C230.81 304.807 230.612 304.214 230.415 303.621C230.217 303.424 230.217 303.029 230.02 302.831C229.822 302.633 229.624 302.238 229.427 302.041C228.044 299.867 225.87 298.089 223.301 296.705C220.93 295.52 218.361 294.729 215.595 294.137C216.583 292.556 217.373 290.975 217.768 289.394C217.966 288.406 218.164 287.418 218.164 286.43C219.152 288.011 220.337 289.197 221.918 289.987C223.894 291.173 226.068 291.37 227.846 291.173C229.822 290.975 231.205 290.382 232.588 289.987C233.972 289.592 235.355 288.999 236.54 288.604C238.912 287.813 241.085 287.023 243.259 286.825C244.247 286.628 245.235 286.825 246.42 287.023C247.408 287.221 248.396 287.813 249.187 288.406C248.396 287.616 247.408 287.023 246.42 286.628C245.432 286.233 244.247 286.035 243.259 286.035C241.085 286.035 238.714 286.628 236.343 287.221C235.157 287.616 233.774 288.011 232.391 288.406C231.008 288.801 229.427 289.197 227.846 289.394C226.265 289.592 224.487 289.394 222.906 288.406C221.325 287.616 219.942 285.837 219.152 284.059C219.152 284.059 218.559 283.071 218.361 282.281C218.361 282.083 218.361 282.083 218.361 281.885C218.164 279.514 217.571 277.143 216.583 275.167C215.595 273.191 214.212 271.413 212.433 270.029C210.655 268.646 208.679 267.856 206.308 267.856C208.481 268.053 210.457 269.041 212.038 270.425C213.619 271.808 214.804 273.586 215.595 275.562C216.385 277.538 216.978 279.712 216.978 282.083C217.176 284.454 216.978 286.825 216.385 289.197C215.595 291.568 214.409 293.939 212.236 295.915C211.643 296.31 211.05 296.903 210.457 297.298C210.062 297.496 209.864 297.693 209.469 297.891C209.074 298.089 208.679 298.286 208.481 298.286C207.691 298.681 207.098 298.879 206.308 299.077C205.517 299.274 204.727 299.472 203.936 299.472C202.356 299.669 200.577 299.472 199.194 298.681C197.613 297.891 196.428 296.508 195.242 294.927C195.044 294.729 194.847 294.532 194.649 294.137C194.452 293.939 194.254 293.544 193.859 293.544C193.661 293.346 193.266 293.149 193.068 293.149C193.661 287.813 192.673 283.861 191.488 281.095C190.104 278.131 188.524 276.155 186.35 274.574C188.128 276.748 189.116 278.724 190.104 281.688C190.895 284.454 191.685 288.011 191.092 292.951C190.104 293.149 189.116 293.544 188.326 293.939C186.745 294.532 185.56 295.52 184.374 296.903C184.374 296.705 184.374 296.705 184.374 296.903ZM212.236 338.004C212.236 338.201 212.038 338.201 212.038 338.201C211.643 339.189 211.445 340.177 211.643 341.561C210.26 341.956 209.074 341.956 207.691 341.363C202.948 339.387 199.194 332.669 197.613 329.112C197.613 325.555 197.02 322.591 196.625 320.22C196.23 317.849 195.637 315.675 195.044 313.897C194.056 310.34 192.871 307.771 191.685 304.807C192.278 307.771 192.871 310.537 193.661 314.094C194.056 315.873 194.452 317.849 194.847 320.417C195.044 321.801 195.242 323.579 195.44 325.16C195.44 325.753 195.044 325.555 195.044 325.357C185.164 318.837 184.967 305.005 185.164 300.46C185.164 298.879 185.757 298.089 186.152 297.693C187.14 296.705 188.326 295.717 189.314 295.125C190.104 294.532 191.092 294.334 191.883 294.334C192.673 294.334 193.068 294.927 193.661 295.52C194.847 297.298 196.428 298.879 198.404 299.867C199.194 300.262 199.984 300.46 200.775 300.657C200.38 305.202 201.565 309.154 203.739 311.921C204.727 313.304 205.912 314.292 207.098 315.082C207.098 315.082 207.493 315.28 207.296 316.268C206.505 321.208 207.098 325.357 208.481 328.914C209.272 330.89 210.457 332.471 211.643 333.657C212.236 334.249 212.828 334.842 213.619 335.237L213.816 335.435C213.816 335.633 213.619 335.83 213.421 336.028C212.828 336.818 212.433 337.609 212.236 338.004ZM256.696 319.232L254.917 320.022C254.522 320.22 254.127 320.22 253.732 320.417C251.36 320.615 249.384 320.615 247.606 320.417C246.42 320.022 245.432 319.627 244.642 318.837C244.444 318.441 244.049 318.046 243.852 317.651C243.852 317.453 243.654 317.256 243.654 317.058C243.654 316.861 243.654 316.663 243.456 316.268C243.259 314.292 243.456 312.513 244.444 311.328C245.037 310.735 245.828 310.537 246.618 310.537C247.013 310.537 247.408 310.537 247.804 310.735C248.199 310.933 248.594 310.933 248.989 311.328C248.792 310.933 248.396 310.735 248.001 310.537C247.606 310.34 247.211 310.142 246.618 310.142C245.63 309.945 244.642 310.142 243.852 310.933C243.061 311.525 242.468 312.513 242.271 313.501C242.073 314.489 241.876 315.477 241.876 316.663C241.876 316.861 241.876 317.256 241.876 317.453C241.876 317.849 242.073 318.046 242.073 318.441C242.271 319.034 242.666 319.627 243.061 320.22C244.049 321.405 245.235 322.196 246.816 322.591C249.384 323.184 252.546 323.184 255.905 322.393C257.881 324.567 260.055 329.309 260.055 339.782C260.055 346.698 259.264 354.207 250.57 355.788C243.061 357.171 238.714 353.021 237.133 351.045C238.912 350.255 240.097 349.069 241.283 348.081C241.678 347.686 242.073 347.291 242.468 346.896C243.852 348.081 245.432 348.674 246.816 348.674C248.396 348.674 249.78 348.081 250.57 347.686C251.558 347.093 252.348 346.501 252.744 345.513C253.139 344.525 252.941 343.734 252.744 342.746C252.744 343.734 252.546 344.525 251.953 345.117C251.558 345.71 250.768 346.105 249.78 346.501C248.792 346.896 247.804 347.093 246.618 347.093C246.025 347.093 245.432 346.896 244.84 346.698C244.444 346.501 244.049 346.303 243.852 345.908C243.654 345.71 243.852 345.117 243.852 345.117C244.049 344.92 244.247 344.525 244.247 344.327C245.63 341.561 245.63 339.189 245.235 337.016C245.037 339.387 244.444 341.561 243.061 343.734C242.271 344.92 241.48 345.71 240.097 346.896C238.714 348.081 237.331 348.674 235.157 349.465L234.367 349.86C221.325 354.997 214.409 343.734 214.014 343.141L213.421 342.153C213.224 341.956 213.224 341.363 213.026 341.165C212.828 339.782 213.224 338.597 213.619 337.806C213.619 337.806 213.619 337.806 213.619 337.609C213.816 337.213 214.014 337.213 214.014 337.213C214.212 337.411 214.409 337.411 214.804 337.609C217.571 338.992 220.14 339.585 222.511 339.585C225.08 339.585 227.451 338.597 229.032 336.621C227.253 338.399 224.882 338.992 222.511 338.794C220.14 338.597 217.768 337.806 215.397 336.423C214.804 336.028 214.212 335.633 213.619 335.237C213.026 334.842 212.433 334.249 211.84 333.657C210.852 332.471 209.864 331.088 209.272 329.309C208.086 326.345 207.691 322.393 208.284 318.046C208.284 318.046 208.481 317.453 208.876 317.453C209.272 317.651 209.667 317.849 210.26 317.849C213.026 318.441 215.397 317.651 217.176 316.663C218.954 315.477 220.535 314.094 221.72 312.316C220.337 313.897 218.559 315.082 216.78 315.873C215.002 316.663 212.828 317.256 210.457 316.465C209.864 316.268 209.272 316.07 208.876 315.873C208.284 315.477 207.691 315.28 207.098 314.885C205.912 314.094 204.924 313.106 203.936 311.723C202.356 309.549 201.368 306.388 201.565 302.831C201.565 302.633 201.763 301.843 202.356 301.843C202.553 301.843 202.948 301.843 203.146 301.843C204.134 301.645 204.924 301.448 205.912 301.25C206.703 301.053 207.691 300.657 208.284 300.262C208.679 300.065 209.074 299.867 209.469 299.669C209.864 299.472 210.26 299.274 210.655 299.077C211.445 298.681 212.038 298.089 212.631 297.496C212.828 297.298 213.026 296.903 213.224 296.705C213.224 296.705 213.421 296.31 214.014 296.508C219.942 297.298 224.882 300.065 227.253 303.621C227.451 303.819 227.648 304.017 227.648 304.214L228.044 305.005C228.241 305.4 228.636 305.993 228.636 306.388C228.834 306.981 229.032 307.376 229.032 307.771C229.032 308.364 229.229 308.759 229.229 309.154C229.427 311.13 229.427 313.106 229.427 314.885C229.427 315.873 229.427 316.663 229.229 317.651H229.032C229.032 317.849 229.229 318.046 229.229 318.244C228.834 320.417 228.044 322.196 226.66 323.381C224.487 325.16 221.325 325.753 218.559 326.148C221.523 325.95 224.487 325.753 227.253 323.974C228.636 322.986 229.427 321.603 230.02 320.22C231.008 322.591 232.391 324.567 234.169 325.95C236.343 327.729 238.516 328.717 240.492 329.112C242.468 329.705 244.247 329.705 245.828 329.507C247.408 329.507 248.989 329.112 250.57 328.717C248.989 328.914 247.408 328.914 245.828 328.717C244.247 328.519 242.666 328.321 240.888 327.729C239.109 327.136 237.133 326.148 235.355 324.567C233.576 322.986 231.996 320.417 231.205 317.256H231.008C231.205 316.465 231.205 315.675 231.205 314.885C231.403 313.106 231.403 311.13 231.205 308.957C231.205 308.364 231.008 307.771 231.008 307.376C231.6 306.19 232.588 305.202 233.576 304.412C234.96 303.226 236.936 302.436 239.109 301.843C241.283 301.25 243.852 301.25 246.816 301.448C248.396 301.448 250.175 301.448 252.151 301.053C253.534 300.855 255.115 300.262 256.696 299.472C257.684 300.657 259.857 303.424 259.857 308.561C260.45 317.256 256.696 319.232 256.696 319.232Z" fill="#00B8AC"/>
<path d="M316.372 210.156C317.36 210.354 318.348 210.749 319.533 211.539C320.521 212.33 321.707 213.911 321.707 216.677C321.707 219.246 320.521 220.827 319.533 221.815C318.545 222.605 317.557 223 316.372 223C317.162 222.407 317.755 221.617 318.348 220.827C318.941 219.839 319.533 218.653 319.533 216.677C319.533 214.701 318.743 213.515 318.348 212.527C317.755 211.539 317.162 210.749 316.372 210.156Z" fill="#00B8AC"/>
<path d="M261.637 308.168C261.637 315.677 264.008 319.432 265.588 321.012C263.02 324.767 261.637 330.892 261.637 339.389C261.637 344.922 261.637 356.383 273.69 358.556C274.876 358.754 276.061 358.952 277.247 358.952C284.558 358.952 288.905 354.604 290.486 352.431C302.737 356.58 310.444 348.084 312.815 345.12C314.791 345.712 316.767 345.515 318.743 344.724C325.461 341.76 330.204 331.485 331.389 329.114C344.233 321.408 343.838 304.216 343.443 300.264C355.496 287.42 350.952 268.056 349.964 264.499C353.125 256.792 349.173 250.272 346.012 247.11C346.604 245.134 347 242.763 347 239.404C347 232.685 342.06 228.338 340.084 226.757C340.479 222.805 339.886 219.644 337.91 217.075C335.539 214.111 332.18 212.925 330.401 212.53C328.425 203.638 323.09 198.896 314.989 198.896C314.791 198.896 313.013 199.093 311.037 199.884C309.653 197.315 306.294 193.56 297.797 193.956C296.809 192.572 294.24 189.806 290.684 187.435C284.163 183.088 277.049 182.297 270.133 185.064C267.565 186.052 265.193 188.621 263.81 192.375C261.834 197.908 261.241 207.195 266.181 217.075C260.451 226.757 264.008 241.972 264.996 245.727C263.81 247.505 261.241 252.05 261.637 260.942C262.032 269.044 265.193 273.588 267.169 275.564C264.996 277.738 263.217 280.307 262.625 282.876C260.846 289.199 261.637 294.732 264.798 298.091C262.625 300.462 261.637 304.216 261.637 308.168ZM340.677 296.708C339.491 295.522 338.305 294.534 336.922 293.744C336.132 293.348 335.144 292.756 334.156 292.756C333.563 287.618 334.156 284.061 335.144 281.492C336.132 278.528 337.12 276.355 338.898 274.379C336.725 275.96 335.144 277.936 333.761 280.9C332.575 283.666 331.587 287.618 332.18 292.953C331.784 293.151 331.587 293.151 331.389 293.348C330.994 293.546 330.796 293.744 330.599 293.941C330.401 294.139 330.204 294.534 330.006 294.732C328.821 296.312 327.635 297.696 326.054 298.486C324.473 299.276 322.893 299.474 321.312 299.276C320.521 299.276 319.731 299.079 318.941 298.881C318.15 298.684 317.557 298.486 316.767 298.091C316.372 297.893 315.976 297.696 315.779 297.696C315.581 297.498 315.186 297.301 314.791 297.103C314.198 296.708 313.605 296.312 313.012 295.72C310.839 293.744 309.653 291.372 308.863 289.001C308.072 286.63 308.073 284.061 308.27 281.888C308.468 279.516 308.863 277.343 309.653 275.367C310.444 273.391 311.629 271.612 313.21 270.229C314.791 268.846 316.767 267.858 318.941 267.66C316.767 267.66 314.593 268.648 312.815 269.834C311.036 271.217 309.653 272.996 308.665 274.972C307.677 276.948 307.084 279.319 306.887 281.69C306.887 281.888 306.887 281.888 306.887 282.085C306.492 282.678 306.097 283.864 306.097 283.864C305.306 285.84 303.725 287.421 302.342 288.211C300.761 289.001 298.983 289.396 297.402 289.199C295.821 289.001 294.241 288.606 292.857 288.211C291.474 287.816 290.091 287.42 288.905 287.025C286.337 286.432 284.163 285.84 281.989 285.84C280.804 285.84 279.816 286.037 278.828 286.432C277.84 286.828 276.852 287.421 276.061 288.211C276.852 287.618 277.84 287.025 278.828 286.828C279.816 286.63 280.804 286.63 281.989 286.63C284.163 286.828 286.139 287.618 288.708 288.408C289.893 288.804 291.276 289.199 292.66 289.792C294.043 290.187 295.624 290.78 297.402 290.977C299.181 291.175 301.354 290.977 303.33 289.792C304.713 289.001 306.097 287.816 307.085 286.235C307.085 287.223 307.282 288.211 307.48 289.199C307.875 290.78 308.665 292.36 309.653 293.941C306.689 294.336 304.12 295.324 301.947 296.51C299.378 297.893 297.205 299.672 295.821 301.845C295.624 302.043 295.426 302.438 295.228 302.636C295.031 302.833 295.031 303.228 294.833 303.426C294.636 304.019 294.24 304.612 294.24 305.204C294.043 305.6 294.043 305.995 293.845 306.588C292.462 303.624 289.893 301.252 286.139 300.067C283.768 299.276 281.001 299.079 277.84 299.079C276.259 299.079 274.678 299.079 272.9 298.684C272.307 298.486 271.516 298.288 270.924 298.091C270.528 297.893 269.541 297.498 268.75 296.905L267.96 296.312C267.564 296.115 267.367 295.72 267.169 295.522C263.81 292.163 264.798 286.432 265.786 283.468C266.577 280.9 268.355 278.331 270.726 276.552L272.307 275.169C273.295 274.379 274.481 273.786 275.469 273.391C277.049 272.798 278.63 272.403 280.211 272.008C283.175 271.612 285.744 272.008 287.917 272.6C290.091 273.193 291.869 274.181 293.648 275.169C295.228 276.157 296.809 277.343 298.193 278.726C296.809 277.145 295.624 275.762 294.043 274.576C292.462 273.391 290.684 272.205 288.313 271.217C287.127 270.822 285.546 270.427 283.965 270.229C283.57 265.289 283.965 261.732 284.756 259.164C285.546 256.792 286.337 255.014 287.917 253.631C288.115 253.828 288.313 254.026 288.51 254.026C288.905 254.224 289.3 254.421 289.696 254.816C290.091 255.014 290.486 255.212 290.881 255.409C291.672 255.607 292.462 256.2 293.253 256.2C294.043 256.397 294.833 256.397 295.624 256.397C298.588 256.2 300.761 254.816 302.342 253.433C303.923 252.05 304.911 250.667 305.899 249.086C306.689 247.703 307.48 246.122 308.072 244.541C307.282 245.924 306.294 247.308 305.109 248.493C304.121 249.679 302.935 251.062 301.354 252.248C299.773 253.433 297.995 254.421 295.624 254.619C295.031 254.619 294.438 254.619 293.845 254.421C293.253 254.421 292.66 254.026 291.869 253.828C291.474 253.631 291.277 253.433 290.881 253.236C290.486 253.038 290.289 252.84 289.893 252.643C289.103 252.248 288.708 251.655 288.115 251.062C285.941 248.493 285.941 245.332 286.336 242.96C286.732 240.392 287.72 238.416 288.51 236.835C289.498 235.056 290.486 233.673 291.474 232.488C292.66 231.302 293.845 230.116 295.426 229.919C293.648 229.919 292.265 230.709 290.881 231.895C289.498 232.883 288.312 234.266 287.127 236.044C285.941 237.823 284.953 239.799 284.361 242.565C284.163 243.948 283.965 245.529 284.163 247.11C284.36 248.888 285.151 250.667 286.336 252.248C286.732 252.643 287.127 253.236 287.72 253.631C285.941 254.816 284.558 256.397 283.373 258.768C282.385 261.337 281.594 264.499 281.792 269.044C281.792 269.044 281.989 269.834 281.397 270.229C280.804 270.229 280.408 270.229 279.816 270.229C278.235 270.427 276.457 270.822 274.678 271.612C273.295 272.205 271.714 272.798 270.331 273.786C269.343 272.996 265.193 269.241 264.798 260.547C264.403 250.667 267.762 246.912 267.762 246.912L268.355 246.32C268.355 246.32 269.936 244.541 271.516 243.751C271.714 243.553 272.109 243.553 272.307 243.356C273.69 242.96 274.678 242.763 276.061 242.96C274.876 242.368 273.69 241.775 272.109 241.972C270.924 242.17 269.343 242.565 267.96 243.948C266.972 239.601 264.008 225.572 269.343 217.668L269.54 217.272C270.528 216.087 271.714 214.901 272.9 214.111C274.085 213.123 275.271 212.53 276.456 211.937C278.828 210.949 280.804 210.356 282.78 209.961C286.534 209.368 289.498 209.368 292.857 209.566C289.696 208.776 286.732 208.183 282.78 208.38C281.001 206.207 280.013 204.231 279.618 202.65C279.223 201.069 279.025 199.686 279.618 198.105C278.63 199.291 278.037 200.872 278.235 202.848C278.432 204.033 278.63 205.219 279.223 206.207C279.42 206.8 280.013 207.788 280.409 208.578C278.828 208.776 277.247 209.171 275.666 209.961C274.481 210.554 273.097 211.147 271.714 212.135C270.726 212.925 269.738 213.716 268.948 214.704C264.798 205.812 264.996 197.71 266.972 192.77C267.96 190.004 269.54 188.225 271.319 187.435C285.546 181.705 295.228 195.339 295.624 195.932L296.217 196.722C297.007 197.71 297.6 198.896 297.797 199.884C298.193 200.872 298.588 201.86 298.983 202.848C299.18 201.86 299.378 200.872 299.378 199.686C299.378 198.896 299.181 197.908 298.785 196.722C306.492 196.524 308.27 200.674 308.665 201.662C306.689 203.44 305.701 205.021 305.306 206.404C304.713 208.183 304.713 209.566 305.109 210.949C305.306 209.566 305.899 208.38 306.689 206.997C307.48 205.614 308.863 204.428 311.629 202.65C313.605 201.662 315.384 201.464 315.384 201.464C323.683 201.464 326.647 207.985 327.635 213.518L327.833 214.704L329.018 214.901C329.018 214.901 333.168 215.296 335.539 218.458C336.922 220.236 337.317 222.608 337.12 225.572C335.144 225.176 333.76 225.374 332.575 225.769C330.994 226.362 330.204 226.955 329.216 227.943C330.401 227.548 331.389 227.35 332.773 227.152C333.365 227.152 334.156 227.152 335.144 227.152C335.341 227.152 335.539 227.152 335.737 227.152C336.329 227.35 336.922 227.548 337.317 227.745L337.713 227.943C337.713 227.943 344.036 231.895 344.036 238.416C344.036 241.182 343.838 243.158 343.443 244.739C343.245 244.541 342.85 244.344 342.455 244.344C341.467 243.948 340.479 243.751 339.491 243.751C337.515 243.751 335.737 244.739 334.353 245.727C331.587 247.703 330.006 250.469 328.425 252.445C327.635 253.433 326.647 254.224 325.857 254.619C324.869 255.014 323.881 255.014 322.893 255.014C322.3 254.816 321.905 254.816 321.312 254.619C320.719 254.421 320.324 254.224 319.929 254.026C319.336 253.828 318.545 253.433 317.953 253.236C319.138 251.062 319.929 248.888 320.521 246.912C321.114 244.541 321.509 242.368 321.509 240.392C321.509 238.218 320.916 236.44 319.731 234.859C318.743 233.278 317.162 232.29 315.779 231.697C314.198 231.104 312.617 231.104 311.432 231.5C310.839 231.697 310.246 231.895 309.653 232.092C309.851 229.128 309.456 226.164 307.875 222.805C307.084 221.027 305.701 219.051 303.528 217.47C301.156 215.889 297.995 215.099 294.24 215.296C293.252 215.296 292.462 215.692 291.474 215.889C290.684 216.284 289.893 216.482 289.103 217.075C288.708 217.272 288.51 217.47 288.115 217.865C287.917 218.063 287.522 218.458 287.324 218.656C286.732 219.248 286.337 219.841 285.941 220.236C284.361 222.41 283.768 224.584 282.78 226.164C281.989 227.745 281.001 229.128 280.013 230.116C278.828 231.104 277.444 231.5 275.864 231.895C277.444 231.895 279.025 231.895 280.606 230.907C281.989 230.116 283.175 228.733 284.163 226.955C285.151 225.374 286.139 223.398 287.522 221.422C288.905 219.446 291.079 217.668 294.24 217.47C297.402 217.272 300.366 217.865 302.145 219.051C304.121 220.236 305.306 222.015 306.294 223.398C307.875 226.362 308.665 229.128 309.258 232.092C308.665 232.29 308.072 232.685 307.48 233.08C305.504 234.464 303.725 236.242 302.54 238.416C303.923 236.44 305.899 235.056 307.875 233.871C308.863 233.278 310.049 232.883 311.234 232.685C312.42 232.488 313.803 232.488 314.989 233.08C316.174 233.673 317.36 234.464 318.15 235.847C318.941 237.032 319.336 238.811 319.336 240.589C319.336 244.146 318.15 248.296 315.779 252.84C314 252.445 312.222 252.445 310.641 253.038C308.863 253.828 307.48 254.816 306.294 256.2C303.923 258.768 302.342 261.732 301.157 264.894C302.54 261.732 304.318 259.164 306.689 256.792C307.875 255.607 309.258 254.816 310.839 254.224C312.42 253.631 314.198 253.828 315.976 254.619C316.767 255.014 317.755 255.409 318.743 256.002C319.731 256.397 320.917 256.792 322.102 256.99C323.288 257.188 324.671 257.188 326.054 256.595C327.437 256.002 328.425 255.014 329.413 254.026C331.192 251.852 332.773 249.481 335.144 247.703C335.737 247.308 336.527 246.912 337.317 246.517C339.886 245.727 342.06 247.505 342.06 247.505L343.048 248.296C343.443 248.493 350.359 254.224 347 262.72C347 262.72 347 262.523 346.802 262.523C344.629 260.349 341.862 258.966 339.096 258.966C336.527 258.768 333.958 259.559 332.18 260.942C330.401 262.325 329.018 263.906 328.03 265.487C326.054 268.846 325.264 272.008 324.671 274.972C324.078 277.936 323.683 280.9 323.683 284.061C324.078 281.097 324.671 278.133 325.461 275.169C326.252 272.205 327.437 269.241 329.216 266.277C330.204 264.894 331.389 263.313 332.97 262.325C334.551 261.14 336.527 260.744 338.898 260.744C341.072 260.744 343.443 261.93 345.221 263.906C346.012 264.696 346.605 265.882 347.197 267.068C348.383 272.996 349.964 286.828 341.862 296.708C341.665 296.905 341.269 297.3 340.677 296.708C340.874 296.708 340.874 296.708 340.677 296.708ZM311.827 336.425C311.629 336.228 311.629 336.03 311.432 335.832L311.629 335.635C312.42 335.24 313.013 334.647 313.605 334.054C314.791 332.868 315.976 331.288 316.767 329.312C318.15 325.755 318.545 321.605 317.953 316.665C317.755 315.677 318.15 315.48 318.15 315.48C319.336 314.689 320.521 313.701 321.509 312.318C323.485 309.552 324.869 305.6 324.473 301.055C325.264 300.857 326.054 300.66 326.845 300.264C328.821 299.276 330.204 297.696 331.587 295.917C332.18 295.127 332.575 294.732 333.365 294.732C334.156 294.732 334.946 294.929 335.934 295.522C337.12 296.115 338.108 297.103 339.096 298.091C339.293 298.486 339.886 299.276 340.084 300.857C340.281 305.204 340.084 319.234 330.204 325.755C330.204 325.755 329.611 325.952 329.809 325.557C330.006 323.779 330.204 322.198 330.401 320.815C330.797 318.444 331.192 316.468 331.587 314.492C332.377 310.935 332.772 308.168 333.563 305.204C332.377 307.971 331.192 310.737 330.204 314.294C329.611 316.072 329.216 318.048 328.623 320.617C328.228 322.988 327.635 325.952 327.635 329.509C325.856 333.066 322.102 339.784 317.557 341.76C316.174 342.353 314.989 342.353 313.605 341.958C313.803 340.575 313.605 339.389 313.21 338.599C313.21 338.599 313.21 338.599 313.21 338.401C312.815 337.611 312.42 336.82 311.827 336.425ZM264.798 308.168C264.798 303.031 266.972 300.264 267.96 299.079C269.54 299.869 270.924 300.264 272.505 300.66C274.481 301.055 276.259 301.055 277.84 301.055C281.001 300.857 283.373 301.055 285.546 301.45C287.72 302.043 289.498 302.833 291.079 304.019C292.067 304.809 293.055 305.797 293.648 306.983C293.648 307.576 293.45 308.168 293.45 308.564C293.253 310.737 293.253 312.516 293.45 314.492C293.45 315.282 293.648 316.073 293.648 316.863H293.45C292.66 320.222 291.079 322.593 289.301 324.174C287.522 325.755 285.546 326.743 283.768 327.336C281.989 327.928 280.408 328.126 278.828 328.324C277.247 328.521 275.666 328.521 274.085 328.324C275.666 328.719 277.247 328.916 278.828 329.114C280.408 329.114 282.187 329.114 284.163 328.719C286.139 328.126 288.313 327.336 290.486 325.557C292.067 324.174 293.45 322.198 294.636 319.827C295.228 321.408 296.217 322.791 297.402 323.581C300.169 325.36 303.133 325.557 306.097 325.755C303.133 325.162 300.168 324.767 297.995 322.988C296.414 321.803 295.624 320.024 295.426 317.851C295.426 317.653 295.624 317.456 295.624 317.258H295.426C295.229 316.468 295.228 315.48 295.228 314.492C295.228 312.713 295.229 310.737 295.426 308.761C295.426 308.366 295.624 307.773 295.624 307.378C295.821 306.983 296.019 306.39 296.019 305.995C296.216 305.402 296.414 305.007 296.612 304.612L297.007 303.821C297.204 303.624 297.402 303.426 297.402 303.228C299.773 299.672 304.713 297.103 310.641 296.115C311.037 296.115 311.432 296.312 311.432 296.312C311.629 296.51 311.827 296.905 312.024 297.103C312.617 297.696 313.21 298.091 314.001 298.684C314.396 298.881 314.791 299.079 315.186 299.276C315.581 299.474 315.976 299.672 316.372 299.869C317.162 300.264 317.952 300.66 318.743 300.857C319.533 301.055 320.521 301.252 321.509 301.45C321.707 301.45 322.102 301.45 322.3 301.45C322.695 301.45 322.893 302.24 323.09 302.438C323.09 305.995 322.102 309.156 320.719 311.33C319.731 312.713 318.743 313.701 317.557 314.492C316.965 314.887 316.372 315.282 315.779 315.48C315.186 315.677 314.593 316.072 314.198 316.072C312.025 316.665 309.851 316.27 307.875 315.48C306.096 314.689 304.318 313.306 302.935 311.923C304.12 313.701 305.701 315.084 307.48 316.27C309.258 317.456 311.827 318.246 314.396 317.456C314.791 317.456 315.186 317.258 315.779 317.06C316.174 316.863 316.372 317.456 316.372 317.653C316.964 322 316.569 325.755 315.384 328.916C314.791 330.695 313.803 332.078 312.815 333.264C312.222 333.856 311.827 334.449 311.037 334.844C310.444 335.24 309.851 335.635 309.258 336.03C306.887 337.413 304.516 338.204 302.145 338.401C299.773 338.599 297.402 338.006 295.624 336.228C297.204 338.204 299.576 339.192 302.145 339.192C304.713 339.389 307.282 338.599 309.851 337.216C310.048 337.018 310.444 337.018 310.641 336.82C310.641 336.82 310.839 336.82 311.037 337.216C311.037 337.216 311.037 337.216 311.037 337.413C311.432 338.006 311.827 339.192 311.629 340.772C311.629 340.97 311.432 341.563 311.234 341.76L310.641 342.748C310.444 343.144 303.33 354.604 290.289 349.467L289.498 349.072C287.325 348.084 285.941 347.491 284.558 346.503C283.175 345.317 282.187 344.527 281.594 343.341C280.013 341.168 279.618 338.994 279.421 336.623C279.025 338.994 279.025 341.365 280.409 343.934C280.606 344.132 280.606 344.527 280.804 344.724C280.804 344.724 281.001 345.12 280.804 345.515C280.408 345.713 280.013 346.108 279.816 346.305C279.223 346.7 278.63 346.7 278.037 346.7C276.852 346.7 275.864 346.503 274.876 346.108C273.888 345.712 273.295 345.515 272.702 344.724C272.307 344.132 271.912 343.341 271.912 342.353C271.714 343.144 271.516 344.132 271.912 345.12C272.307 346.108 273.097 346.898 274.085 347.293C275.073 347.886 276.259 348.281 277.84 348.281C279.223 348.281 280.804 347.886 282.187 346.503C282.582 346.898 282.977 347.293 283.373 347.688C284.558 348.676 285.744 349.664 287.522 350.652C285.941 352.628 281.594 356.778 274.085 355.395C265.391 353.814 264.601 346.305 264.601 339.389C264.601 328.916 266.774 324.174 268.75 322C272.109 322.593 275.073 322.791 277.84 322.198C279.42 321.803 280.606 321.013 281.594 319.827C281.989 319.234 282.385 318.641 282.582 318.048C282.582 317.653 282.78 317.456 282.78 317.06C282.78 316.665 282.78 316.468 282.78 316.27C282.977 315.084 282.582 314.096 282.384 313.108C281.989 312.12 281.594 311.132 280.804 310.54C280.013 309.947 279.025 309.749 278.037 309.749C277.642 309.749 277.049 309.947 276.654 310.144C276.259 310.342 275.864 310.54 275.666 310.935C275.864 310.54 276.456 310.342 276.852 310.342C277.247 310.144 277.642 310.144 278.037 310.144C278.828 310.144 279.618 310.54 280.211 310.935C281.396 312.121 281.594 313.899 281.199 315.875C281.199 316.073 281.199 316.27 281.001 316.665C281.001 316.863 280.804 317.06 280.804 317.258C280.606 317.653 280.409 318.048 280.013 318.444C279.421 319.234 278.433 319.827 277.049 320.024C275.271 320.42 273.295 320.42 270.924 320.024C270.528 320.024 269.936 319.827 269.738 319.629L267.96 318.839C268.552 319.234 264.798 317.258 264.798 308.168Z" fill="#00B8AC"/>
</g>
<g style="mix-blend-mode:color-dodge" filter="url(#filter2_di_315_265)">
<circle cx="263" cy="271" r="156" fill="url(#paint0_radial_315_265)" shape-rendering="crispEdges"/>
</g>
</g>
<defs>
<filter id="filter0_d_315_265" x="0.5625" y="0.4375" width="547.625" height="547.625" filterUnits="userSpaceOnUse" color-interpolation-filters="sRGB">
<feFlood flood-opacity="0" result="BackgroundImageFix"/>
<feColorMatrix in="SourceAlpha" type="matrix" values="0 0 0 0 0 0 0 0 0 0 0 0 0 0 0 0 0 0 127 0" result="hardAlpha"/>
<feOffset dx="11.375" dy="3.25"/>
<feGaussianBlur stdDeviation="58.9062"/>
<feComposite in2="hardAlpha" operator="out"/>
<feColorMatrix type="matrix" values="0 0 0 0 0 0 0 0 0 0.160784 0 0 0 0 0.317647 0 0 0 0.25 0"/>
<feBlend mode="normal" in2="BackgroundImageFix" result="effect1_dropShadow_315_265"/>
<feBlend mode="normal" in="SourceGraphic" in2="effect1_dropShadow_315_265" result="shape"/>
</filter>
<filter id="filter1_f_315_265" x="161.438" y="171.062" width="202.373" height="200.077" filterUnits="userSpaceOnUse" color-interpolation-filters="sRGB">
<feFlood flood-opacity="0" result="BackgroundImageFix"/>
<feBlend mode="normal" in="SourceGraphic" in2="BackgroundImageFix" result="shape"/>
<feGaussianBlur stdDeviation="6.09375" result="effect1_foregroundBlur_315_265"/>
</filter>
<filter id="filter2_di_315_265" x="78.4" y="68.72" width="408.72" height="408.72" filterUnits="userSpaceOnUse" color-interpolation-filters="sRGB">
<feFlood flood-opacity="0" result="BackgroundImageFix"/>
<feColorMatrix in="SourceAlpha" type="matrix" values="0 0 0 0 0 0 0 0 0 0 0 0 0 0 0 0 0 0 127 0" result="hardAlpha"/>
<feOffset dx="19.76" dy="2.08"/>
<feGaussianBlur stdDeviation="24.18"/>
<feComposite in2="hardAlpha" operator="out"/>
<feColorMatrix type="matrix" values="0 0 0 0 0.0108284 0 0 0 0 0.0517693 0 0 0 0 0.0886162 0 0 0 0.37 0"/>
<feBlend mode="normal" in2="BackgroundImageFix" result="effect1_dropShadow_315_265"/>
<feBlend mode="normal" in="SourceGraphic" in2="effect1_dropShadow_315_265" result="shape"/>
<feColorMatrix in="SourceAlpha" type="matrix" values="0 0 0 0 0 0 0 0 0 0 0 0 0 0 0 0 0 0 127 0" result="hardAlpha"/>
<feMorphology radius="19.76" operator="erode" in="SourceAlpha" result="effect2_innerShadow_315_265"/>
<feOffset dx="-23.92" dy="-12.48"/>
<feGaussianBlur stdDeviation="34.32"/>
<feComposite in2="hardAlpha" operator="arithmetic" k2="-1" k3="1"/>
<feColorMatrix type="matrix" values="0 0 0 0 0.253784 0 0 0 0 0.937188 0 0 0 0 0.896183 0 0 0 0.88 0"/>
<feBlend mode="normal" in2="shape" result="effect2_innerShadow_315_265"/>
</filter>
<radialGradient id="paint0_radial_315_265" cx="0" cy="0" r="1" gradientUnits="userSpaceOnUse" gradientTransform="translate(263 271) rotate(90) scale(255.84)">
<stop stop-color="#2ABBB8" stop-opacity="0"/>
<stop offset="1"/>
</radialGradient>
</defs>
</svg>
