<svg width="675" height="468" viewBox="0 0 675 468" fill="none" xmlns="http://www.w3.org/2000/svg">
<g filter="url(#filter0_f_315_264)">
<path d="M482.574 292.681L498.108 357.605M514.751 233.75L553.031 21M535.833 126.876L594.084 103.903M529.73 157.34L431.535 64.449M414.337 180.812L460.383 209.778M525.847 185.307C549.702 177.982 597.302 162.933 596.858 161.335M21 283.192L59.2796 254.726M59.2796 254.726L98.1139 318.151L131.955 280.196L153.592 324.144L221.829 236.247L273.978 345.619L348.873 150.348L396.029 442.006L513.642 231.253L545.264 350.613L617.385 254.726L654 335.131M59.2796 254.726L45.9649 215.272M43.7458 266.712L52.6223 284.191M53.177 235.249L95.8948 197.793M79.8063 212.775L70.9299 186.306M78.142 286.189L108.655 254.726M133.62 280.196L172.454 236.747M192.426 274.702L217.391 328.14M203.521 299.673L161.913 354.608M182.44 328.14L221.829 385.572M248.458 281.195C248.458 279.197 285.813 223.096 304.491 195.295M276.197 237.246L232.37 171.324M254.006 203.286L293.95 153.345M275.088 347.617L256.78 447M348.873 150.848L402.131 97.4103M365.516 230.754L459.828 133.368M374.947 308.163L330.565 357.605M385.488 366.095L438.747 297.675M596.858 285.689L626.261 348.615M546.373 351.113L576.331 414.039" stroke="#005D94"/>
</g>
<g filter="url(#filter1_f_315_264)">
<path d="M482.574 292.681L498.108 357.605M514.751 233.75L553.031 21M535.833 126.876L594.084 103.903M529.73 157.34L431.535 64.449M414.337 180.812L460.383 209.778M525.847 185.307C549.702 177.982 597.302 162.933 596.858 161.335M21 283.192L59.2796 254.726M59.2796 254.726L98.1139 318.151L131.955 280.196L153.592 324.144L221.829 236.247L273.978 345.619L348.873 150.348L396.029 442.006L513.642 231.253L545.264 350.613L617.385 254.726L654 335.131M59.2796 254.726L45.9649 215.272M43.7458 266.712L52.6223 284.191M53.177 235.249L95.8948 197.793M79.8063 212.775L70.9299 186.306M78.142 286.189L108.655 254.726M133.62 280.196L172.454 236.747M192.426 274.702L217.391 328.14M203.521 299.673L161.913 354.608M182.44 328.14L221.829 385.572M248.458 281.195C248.458 279.197 285.813 223.096 304.491 195.295M276.197 237.246L232.37 171.324M254.006 203.286L293.95 153.345M275.088 347.617L256.78 447M348.873 150.848L402.131 97.4103M365.516 230.754L459.828 133.368M374.947 308.163L330.565 357.605M385.488 366.095L438.747 297.675M596.858 285.689L626.261 348.615M546.373 351.113L576.331 414.039" stroke="#005D94"/>
</g>
<defs>
<filter id="filter0_f_315_264" x="19.7017" y="19.9115" width="635.753" height="428.179" filterUnits="userSpaceOnUse" color-interpolation-filters="sRGB">
<feFlood flood-opacity="0" result="BackgroundImageFix"/>
<feBlend mode="normal" in="SourceGraphic" in2="BackgroundImageFix" result="shape"/>
<feGaussianBlur stdDeviation="0.5" result="effect1_foregroundBlur_315_264"/>
</filter>
<filter id="filter1_f_315_264" x="0.70166" y="0.911499" width="673.753" height="466.179" filterUnits="userSpaceOnUse" color-interpolation-filters="sRGB">
<feFlood flood-opacity="0" result="BackgroundImageFix"/>
<feBlend mode="normal" in="SourceGraphic" in2="BackgroundImageFix" result="shape"/>
<feGaussianBlur stdDeviation="10" result="effect1_foregroundBlur_315_264"/>
</filter>
</defs>
</svg>
